<?xml version="1.0" encoding="iso-8859-1"?>
<!-- Generator: Adobe Illustrator 19.0.0, SVG Export Plug-In . SVG Version: 6.00 Build 0)  -->
<svg version="1.1" id="Layer_1" xmlns="http://www.w3.org/2000/svg" xmlns:xlink="http://www.w3.org/1999/xlink" x="0px" y="0px"
	 viewBox="0 0 512 512" style="enable-background:new 0 0 512 512;" xml:space="preserve">
<g>
	<g>
		<g>
			<path d="M341.333,106.667V21.333C341.333,9.551,331.782,0,320,0H21.333C9.551,0,0,9.551,0,21.333V320
				c0,11.782,9.551,21.333,21.333,21.333h85.333c11.782,0,21.333-9.551,21.333-21.333V128h192
				C331.782,128,341.333,118.449,341.333,106.667z M298.667,85.333h-192c-11.782,0-21.333,9.551-21.333,21.333v192H42.667v-256h256
				V85.333z"/>
			<path d="M490.667,170.667h-85.333C393.551,170.667,384,180.218,384,192v192H192c-11.782,0-21.333,9.551-21.333,21.333v85.333
				c0,11.782,9.551,21.333,21.333,21.333h298.667c11.782,0,21.333-9.551,21.333-21.333V192
				C512,180.218,502.449,170.667,490.667,170.667z M469.333,469.333h-256v-42.667h192c11.782,0,21.333-9.551,21.333-21.333v-192
				h42.667V469.333z"/>
			<path d="M320,170.667H192c-11.782,0-21.333,9.551-21.333,21.333v128c0,11.782,9.551,21.333,21.333,21.333h128
				c11.782,0,21.333-9.551,21.333-21.333V192C341.333,180.218,331.782,170.667,320,170.667z M298.667,298.667h-85.333v-85.333
				h85.333V298.667z"/>
		</g>
	</g>
</g>
<g>
</g>
<g>
</g>
<g>
</g>
<g>
</g>
<g>
</g>
<g>
</g>
<g>
</g>
<g>
</g>
<g>
</g>
<g>
</g>
<g>
</g>
<g>
</g>
<g>
</g>
<g>
</g>
<g>
</g>
</svg>
